<?xml version="1.0" encoding="UTF-8" standalone="no"?>
<svg xmlns="http://www.w3.org/2000/svg" xmlns:xlink="http://www.w3.org/1999/xlink" width="300" height="300" viewBox="0 0 300 300">
  <style>
    .clock-face { fill: #1e5cb3; }
    .clock-border { fill: #7d7d7d; }
    .text { fill: #7d7d7d; font-family: Arial, sans-serif; font-weight: bold; }
    .number { fill: #1e5cb3; font-family: Arial, sans-serif; font-weight: bold; }
    .crystal { fill: #5ac8fa; }
    .person { fill: #7d7d7d; }
  </style>
  
  <!-- Fragments de cristal -->
  <g class="crystal-fragments">
    <path class="crystal" d="M220,150 L240,130 L245,145 Z" />
    <path class="crystal" d="M230,170 L250,160 L245,180 Z" />
    <path class="crystal" d="M210,190 L230,200 L220,210 Z" />
    <path class="crystal" d="M190,200 L200,220 L180,215 Z" />
    <path class="crystal" d="M160,210 L170,230 L150,225 Z" />
    <path class="crystal" d="M130,205 L140,225 L120,220 Z" />
    <path class="crystal" d="M100,195 L110,215 L90,205 Z" />
    <path class="crystal" d="M80,180 L90,200 L70,190 Z" />
    <path class="crystal" d="M70,160 L80,180 L60,170 Z" />
    <path class="crystal" d="M65,140 L75,160 L55,150 Z" />
    <path class="crystal" d="M70,120 L80,140 L60,130 Z" />
    <path class="crystal" d="M80,100 L90,120 L70,110 Z" />
    <path class="crystal" d="M100,85 L110,105 L90,95 Z" />
    <path class="crystal" d="M120,80 L130,100 L110,90 Z" />
    <path class="crystal" d="M140,75 L150,95 L130,85 Z" />
    <path class="crystal" d="M160,80 L170,100 L150,90 Z" />
    <path class="crystal" d="M180,85 L190,105 L170,95 Z" />
    <path class="crystal" d="M200,100 L210,120 L190,110 Z" />
    <!-- Petits fragments supplémentaires -->
    <path class="crystal" d="M225,160 L235,155 L230,165 Z" />
    <path class="crystal" d="M215,180 L225,175 L220,185 Z" />
    <path class="crystal" d="M195,195 L205,190 L200,200 Z" />
    <path class="crystal" d="M175,205 L185,200 L180,210 Z" />
    <path class="crystal" d="M155,210 L165,205 L160,215 Z" />
    <path class="crystal" d="M135,205 L145,200 L140,210 Z" />
    <path class="crystal" d="M115,195 L125,190 L120,200 Z" />
    <path class="crystal" d="M95,180 L105,175 L100,185 Z" />
    <path class="crystal" d="M85,160 L95,155 L90,165 Z" />
    <path class="crystal" d="M85,140 L95,135 L90,145 Z" />
    <path class="crystal" d="M95,120 L105,115 L100,125 Z" />
    <path class="crystal" d="M115,105 L125,100 L120,110 Z" />
    <path class="crystal" d="M135,95 L145,90 L140,100 Z" />
    <path class="crystal" d="M155,90 L165,85 L160,95 Z" />
    <path class="crystal" d="M175,95 L185,90 L180,100 Z" />
    <path class="crystal" d="M195,105 L205,100 L200,110 Z" />
  </g>
  
  <!-- Horloge -->
  <circle cx="150" cy="150" r="80" class="clock-face" />
  <circle cx="150" cy="150" r="80" fill="none" stroke="#7d7d7d" stroke-width="5" />
  
  <!-- Marques de l'horloge -->
  <line x1="150" y1="80" x2="150" y2="90" stroke="#7d7d7d" stroke-width="3" />
  <line x1="150" y1="210" x2="150" y2="220" stroke="#7d7d7d" stroke-width="3" />
  <line x1="80" y1="150" x2="90" y2="150" stroke="#7d7d7d" stroke-width="3" />
  <line x1="210" y1="150" x2="220" y2="150" stroke="#7d7d7d" stroke-width="3" />
  <line x1="115" y1="115" x2="122" y2="122" stroke="#7d7d7d" stroke-width="3" />
  <line x1="115" y1="185" x2="122" y2="178" stroke="#7d7d7d" stroke-width="3" />
  <line x1="185" y1="115" x2="178" y2="122" stroke="#7d7d7d" stroke-width="3" />
  <line x1="185" y1="185" x2="178" y2="178" stroke="#7d7d7d" stroke-width="3" />
  
  <!-- Personne stylisée -->
  <g class="person" transform="translate(75, 150) scale(0.5)">
    <circle cx="20" cy="20" r="15" />
    <path d="M20,35 L20,70 M5,45 L35,45 M10,90 L20,70 L30,90" stroke-width="7" stroke="#7d7d7d" fill="none" />
  </g>
  
  <!-- Texte Horaire360 -->
  <text x="110" y="145" class="text" font-size="24">H</text>
  <text x="130" y="145" class="text" font-size="24">raire</text>
  <text x="180" y="145" class="number" font-size="26">3</text>
  <text x="195" y="145" class="number" font-size="26">6</text>
  <text x="210" y="145" class="number" font-size="26">0</text>
</svg>
